# xmcd CD database file
#
# Track frame offsets:
#	187
#	22845
#	51747
#	77855
#	100487
#	121860
#	143487
#	167890
#	196087
#	218237
#	246125
#
# Disc length: 3634 seconds
#
# Revision: 10
# Processed by: cddbd v1.5.2PL0 Copyright (c) Steve Scherf et al.
# Submitted via: CDex 1.70beta3
#
DISCID=950e300b
DTITLE=Lee Ritenour and Larry Carlton - LARRY and LEE
DYEAR=1995
DGENRE=Jazz
TTITLE0=Crosstown Kids
TTITLE1=Low Steppin'
TTITLE2=L.A. Underground
TTITLE3=Closed Door Jam
TTITLE4=After The Rain
TTITLE5=Remembering J.P.
TTITLE6=Fun In The Dark
TTITLE7=Lots About Nothin'
TTITLE8=Take That
TTITLE9=Up And Adam
TTITLE10=Reflection Of A Guitar Player
EXTD=YEAR: 1995
EXTT0=
EXTT1=
EXTT2=
EXTT3=
EXTT4=
EXTT5=
EXTT6=
EXTT7=
EXTT8=
EXTT9=
EXTT10=
PLAYORDER=
